# xmcd CD database file
#
# Track frame offsets:
#	150
#	13269
#	26039
#	38144
#	52784
#	64637
#	78398
#	93319
#	107158
#	171820
#	241272
#	300875
#	317606
#	331051
#	344388
#
# Disc length: 4780 seconds
#
# Revision: 0
# Processed by: cddbd v1.5.1PL0 Copyright (c) Steve Scherf et al.
# Submitted via: CDex 1.51
#
DISCID=b412aa0f
DTITLE=Benny Carter - Music Master 4 - Funky Blues
DYEAR=1900
DGENRE=Jazz
TTITLE0=Moonglow
TTITLE1=Give Me Something to Remember You By
TTITLE2=Lady Be Good
TTITLE3=Deep Purple
TTITLE4=Sweet Georgia Brown
TTITLE5=Out of My Way
TTITLE6=What'll it Be
TTITLE7=Cadillac Slim
TTITLE8=Jam Blues
TTITLE9=What is This Thing Called Love?
TTITLE10=Funky Blues
TTITLE11=Isn't it Romantic?
TTITLE12=Gone With the Wind
TTITLE13=I Got it Bad and That Ain't Good
TTITLE14=Key Largo
EXTD=
EXTT0=
EXTT1=
EXTT2=
EXTT3=
EXTT4=
EXTT5=
EXTT6=
EXTT7=
EXTT8=
EXTT9=
EXTT10=
EXTT11=
EXTT12=
EXTT13=
EXTT14=
PLAYORDER=
